ply
format ascii 1.0
comment VCGLIB generated
element vertex 36
property float x
property float y
property float z
property float nx
property float ny
property float nz
property uchar red
property uchar green
property uchar blue
property uchar alpha
property float texture_u
property float texture_v
element face 12
property list uchar int vertex_indices
end_header
-5 80 5 0 -1 0 255 0 0 255 0.666667 0
-5 80 -5 0 -1 0 255 0 0 255 0.666667 0.333333
5 80 -5 0 -1 0 255 0 0 255 0.333333 0.333333
-5 80 5 0 -1 0 255 0 0 255 0.666667 0
5 80 -5 0 -1 0 255 0 0 255 0.333333 0.333333
5 80 5 0 -1 0 255 0 0 255 0.333333 0
5 90 -5 0 1 0 255 0 0 255 0.333333 0.333333
-5 90 -5 0 1 0 255 0 0 255 0.333333 0.666667
-5 90 5 0 1 0 255 0 0 255 0 0.666667
5 90 -5 0 1 0 255 0 0 255 0.333333 0.333333
-5 90 5 0 1 0 255 0 0 255 0 0.666667
5 90 5 0 1 0 255 0 0 255 0 0.333333
5 80 -5 0 0 -1 255 0 0 255 1 0
-5 80 -5 0 0 -1 255 0 0 255 1 0.333333
-5 90 -5 0 0 -1 255 0 0 255 0.666667 0.333333
5 80 -5 0 0 -1 255 0 0 255 1 0
-5 90 -5 0 0 -1 255 0 0 255 0.666667 0.333333
5 90 -5 0 0 -1 255 0 0 255 0.666667 0
5 80 5 1 0 0 255 0 0 255 0 0
5 80 -5 1 0 0 255 0 0 255 0.333333 0
5 90 -5 1 0 0 255 0 0 255 0.333333 0.333333
5 80 5 1 0 0 255 0 0 255 0 0
5 90 -5 1 0 0 255 0 0 255 0.333333 0.333333
5 90 5 1 0 0 255 0 0 255 0 0.333333
-5 80 5 0 0 1 255 0 0 255 0.333333 0.666667
5 80 5 0 0 1 255 0 0 255 0.333333 1
5 90 5 0 0 1 255 0 0 255 0 1
-5 80 5 0 0 1 255 0 0 255 0.333333 0.666667
5 90 5 0 0 1 255 0 0 255 0 1
-5 90 5 0 0 1 255 0 0 255 0 0.666667
-5 80 -5 -1 0 0 255 0 0 255 0.666667 0.666667
-5 80 5 -1 0 0 255 0 0 255 0.333333 0.666667
-5 90 5 -1 0 0 255 0 0 255 0.333333 0.333333
-5 80 -5 -1 0 0 255 0 0 255 0.666667 0.666667
-5 90 5 -1 0 0 255 0 0 255 0.333333 0.333333
-5 90 -5 -1 0 0 255 0 0 255 0.666667 0.333333
3 0 1 2
3 3 4 5
3 6 7 8
3 9 10 11
3 12 13 14
3 15 16 17
3 18 19 20
3 21 22 23
3 24 25 26
3 27 28 29
3 30 31 32
3 33 34 35
